<svg width="106" height="41" viewBox="0 0 106 41" fill="none" xmlns="http://www.w3.org/2000/svg">
<path d="M49.0181 19.2259C49.0181 18.8886 48.9514 18.5723 48.8182 18.2771C48.6997 17.9679 48.5221 17.7008 48.2852 17.4759C48.0483 17.251 47.767 17.0753 47.4413 16.9488C47.1303 16.8082 46.7898 16.738 46.4197 16.738C46.0643 16.738 45.7312 16.8012 45.4203 16.9277C45.1094 17.0542 44.8355 17.2299 44.5986 17.4548C44.3765 17.6797 44.1914 17.9468 44.0434 18.256C43.9101 18.5512 43.8435 18.8675 43.8435 19.2048C43.8435 19.5422 43.9101 19.8584 44.0434 20.1536C44.1766 20.4488 44.3617 20.7088 44.5986 20.9337C44.8355 21.1446 45.1094 21.3203 45.4203 21.4608C45.746 21.5874 46.0865 21.6506 46.4419 21.6506C46.7972 21.6506 47.1303 21.5874 47.4413 21.4608C47.7522 21.3343 48.0187 21.1586 48.2408 20.9337C48.4777 20.7088 48.6627 20.4488 48.796 20.1536C48.944 19.8584 49.0181 19.5492 49.0181 19.2259ZM43.9545 30H39.9348V13.7861H43.9545V14.988C44.8133 13.9618 45.9829 13.4488 47.4635 13.4488C48.2778 13.4488 49.0329 13.6034 49.7287 13.9127C50.4394 14.2078 51.0538 14.6155 51.572 15.1355C52.0902 15.6556 52.49 16.2671 52.7713 16.9699C53.0674 17.6727 53.2154 18.4247 53.2154 19.2259C53.2154 20.0271 53.0674 20.7721 52.7713 21.4608C52.49 22.1496 52.0902 22.754 51.572 23.2741C51.0686 23.7942 50.469 24.2018 49.7731 24.497C49.0773 24.7922 48.3222 24.9398 47.5079 24.9398C46.0865 24.9398 44.9021 24.4759 43.9545 23.5482V30ZM53.9521 24.6024H57.7497V9H53.9521V24.6024ZM62.6783 19.1627C62.6783 19.5141 62.7449 19.8444 62.8781 20.1536C63.0114 20.4488 63.1891 20.7088 63.4111 20.9337C63.648 21.1586 63.9219 21.3343 64.2328 21.4608C64.5586 21.5874 64.9065 21.6506 65.2766 21.6506C65.632 21.6506 65.9651 21.5874 66.276 21.4608C66.6017 21.3343 66.8757 21.1586 67.0977 20.9337C67.3346 20.7088 67.5196 20.4488 67.6529 20.1536C67.8009 19.8584 67.875 19.5422 67.875 19.2048C67.875 18.8675 67.8009 18.5512 67.6529 18.256C67.5196 17.9468 67.3346 17.6797 67.0977 17.4548C66.8757 17.2299 66.6017 17.0542 66.276 16.9277C65.9651 16.8012 65.632 16.738 65.2766 16.738C64.9065 16.738 64.5586 16.8012 64.2328 16.9277C63.9219 17.0542 63.648 17.2299 63.4111 17.4548C63.1891 17.6797 63.0114 17.9398 62.8781 18.2349C62.7449 18.5161 62.6783 18.8253 62.6783 19.1627ZM67.7417 13.7861H71.7837V24.6024H67.7417V23.4006C66.8831 24.4267 65.7208 24.9398 64.2551 24.9398C63.4259 24.9398 62.6635 24.7992 61.9676 24.5181C61.2717 24.2229 60.6647 23.8153 60.1465 23.2952C59.6283 22.7751 59.2212 22.1637 58.925 21.4608C58.6437 20.758 58.5031 19.992 58.5031 19.1627C58.5031 18.3896 58.6437 17.6586 58.925 16.9699C59.2063 16.2671 59.5987 15.6556 60.1021 15.1355C60.6055 14.6155 61.2051 14.2078 61.901 13.9127C62.5968 13.6034 63.3667 13.4488 64.2106 13.4488C65.632 13.4488 66.809 13.9197 67.7417 14.8614V13.7861ZM72.9644 13.7861H76.9841V15.1566C77.5319 14.5241 78.0871 14.1024 78.6497 13.8916C79.2124 13.6667 79.8712 13.5542 80.6263 13.5542C81.4258 13.5542 82.1069 13.6807 82.6695 13.9337C83.2469 14.1727 83.7355 14.5171 84.1352 14.9669C84.4609 15.3323 84.683 15.74 84.8015 16.1898C84.9199 16.6396 84.9791 17.1526 84.9791 17.7289V24.6024H80.9594V19.1416C80.9594 18.6074 80.915 18.1787 80.8262 17.8554C80.7521 17.5181 80.6115 17.251 80.4042 17.0542C80.2265 16.8855 80.0267 16.7661 79.8046 16.6958C79.5825 16.6255 79.3456 16.5904 79.0939 16.5904C78.4129 16.5904 77.8873 16.7871 77.5171 17.1807C77.1618 17.5602 76.9841 18.1084 76.9841 18.8253V24.6024H72.9644V13.7861ZM94.4862 17.6235C94.3529 17.0894 94.079 16.6606 93.6645 16.3373C93.2499 16.0141 92.7465 15.8524 92.1543 15.8524C91.5325 15.8524 91.0217 16.007 90.6219 16.3163C90.237 16.6255 89.9927 17.0612 89.889 17.6235H94.4862ZM89.778 19.8373C89.778 21.4819 90.5923 22.3042 92.2209 22.3042C93.0945 22.3042 93.7533 21.9669 94.1975 21.2922H98.084C97.2993 23.7661 95.3375 25.003 92.1987 25.003C91.2364 25.003 90.3554 24.8695 89.5559 24.6024C88.7564 24.3213 88.068 23.9277 87.4905 23.4217C86.9279 22.9157 86.4912 22.3112 86.1803 21.6084C85.8693 20.9056 85.7139 20.1185 85.7139 19.247C85.7139 18.3474 85.8619 17.5392 86.158 16.8223C86.4542 16.0914 86.8761 15.4729 87.4239 14.9669C87.9717 14.4608 88.6306 14.0743 89.4005 13.8072C90.1852 13.5261 91.0661 13.3855 92.0433 13.3855C93.0056 13.3855 93.8718 13.5261 94.6417 13.8072C95.4115 14.0743 96.063 14.4679 96.596 14.988C97.129 15.508 97.5362 16.1476 97.8175 16.9066C98.0988 17.6516 98.2394 18.495 98.2394 19.4367V19.8373H89.778ZM99.5818 20.512C99.5818 23.5693 101.381 24.6024 103.957 24.6024H105.889V21.5452H104.534C103.69 21.5452 103.379 21.25 103.379 20.5542V15.8313H105.867V12.8373H103.379V9.96988H99.5818V12.8373H98.0716V15.8313H99.5818V20.512Z" fill="black"/>
<path d="M53.7373 33.987V34.6371H51.0127V33.987H53.7373ZM51.8287 38.9805V33.2978C51.8287 33.0117 51.8967 32.7733 52.0326 32.5825C52.1687 32.3919 52.3453 32.2488 52.5624 32.1535C52.7796 32.0581 53.0088 32.0104 53.2501 32.0104C53.4408 32.0104 53.5965 32.0256 53.7169 32.0559C53.8383 32.0863 53.9282 32.1145 53.9875 32.1405L53.7632 32.8036C53.7243 32.7906 53.6687 32.7743 53.5993 32.7548C53.5307 32.7353 53.4408 32.7256 53.3287 32.7256C53.0724 32.7256 52.8871 32.7895 52.773 32.9174C52.6611 33.0453 52.6052 33.2327 52.6052 33.4798V38.9805H51.8287ZM56.3001 39.0845C55.8434 39.0845 55.4431 38.9772 55.0984 38.7626C54.7565 38.5481 54.4887 38.2479 54.296 37.8621C54.1051 37.4763 54.0097 37.0255 54.0097 36.5097C54.0097 35.9895 54.1051 35.5355 54.296 35.1476C54.4887 34.7596 54.7565 34.4583 55.0984 34.2438C55.4431 34.0293 55.8434 33.922 56.3001 33.922C56.756 33.922 57.1553 34.0293 57.4972 34.2438C57.8419 34.4583 58.1097 34.7596 58.3006 35.1476C58.4933 35.5355 58.5896 35.9895 58.5896 36.5097C58.5896 37.0255 58.4933 37.4763 58.3006 37.8621C58.1097 38.2479 57.8419 38.5481 57.4972 38.7626C57.1553 38.9772 56.756 39.0845 56.3001 39.0845ZM56.3001 38.3953C56.6467 38.3953 56.9311 38.3075 57.1553 38.1319C57.3786 37.9563 57.5445 37.7255 57.652 37.4395C57.7595 37.1534 57.8132 36.8435 57.8132 36.5097C57.8132 36.1759 57.7595 35.8649 57.652 35.5767C57.5445 35.2885 57.3786 35.0555 57.1553 34.8777C56.9311 34.7 56.6467 34.6111 56.3001 34.6111C55.9536 34.6111 55.6682 34.7 55.444 34.8777C55.2207 35.0555 55.0549 35.2885 54.9474 35.5767C54.8399 35.8649 54.7862 36.1759 54.7862 36.5097C54.7862 36.8435 54.8399 37.1534 54.9474 37.4395C55.0549 37.7255 55.2207 37.9563 55.444 38.1319C55.6682 38.3075 55.9536 38.3953 56.3001 38.3953ZM59.4041 38.9805V33.987H60.1546V34.7412H60.2074C60.2991 34.4941 60.4659 34.2936 60.7077 34.1397C60.9486 33.9859 61.221 33.909 61.5231 33.909C61.5805 33.909 61.6519 33.9101 61.7371 33.9122C61.8233 33.9144 61.8872 33.9177 61.9317 33.922V34.7022C61.9048 34.6957 61.8446 34.6859 61.7501 34.6729C61.6584 34.6577 61.5611 34.6501 61.4573 34.6501C61.2118 34.6501 60.9922 34.7011 60.7995 34.8029C60.6086 34.9026 60.4576 35.0414 60.3454 35.2191C60.2361 35.3947 60.1814 35.5951 60.1814 35.8205V38.9805H59.4041ZM62.4811 38.9805V33.987H63.2316V34.7672H63.2974C63.4021 34.5006 63.5726 34.2936 63.807 34.1462C64.0424 33.9968 64.3241 33.922 64.653 33.922C64.9865 33.922 65.2636 33.9968 65.485 34.1462C65.7092 34.2936 65.8834 34.5006 66.0085 34.7672H66.0613C66.1901 34.5093 66.3847 34.3044 66.6432 34.1527C66.9026 33.9989 67.213 33.922 67.5744 33.922C68.0265 33.922 68.3962 34.0617 68.6835 34.3413C68.9707 34.6187 69.1143 35.0511 69.1143 35.6385V38.9805H68.3379V35.6385C68.3379 35.27 68.2359 35.0067 68.0321 34.8485C67.8283 34.6902 67.5883 34.6111 67.3112 34.6111C66.9564 34.6111 66.6812 34.7173 66.4857 34.9297C66.2902 35.14 66.1929 35.4066 66.1929 35.7295V38.9805H65.4035V35.5605C65.4035 35.2765 65.3099 35.0479 65.1237 34.8745C64.9365 34.6989 64.6965 34.6111 64.4028 34.6111C64.2008 34.6111 64.0127 34.6642 63.8367 34.7704C63.6634 34.8766 63.5235 35.024 63.416 35.2126C63.3104 35.399 63.2576 35.6146 63.2576 35.8595V38.9805H62.4811ZM72.2822 39.0845C71.7957 39.0845 71.376 38.9783 71.0221 38.7659C70.6718 38.5513 70.4004 38.2522 70.2095 37.8686C70.0214 37.4828 69.9269 37.0342 69.9269 36.5227C69.9269 36.0112 70.0214 35.5605 70.2095 35.1703C70.4004 34.778 70.6663 34.4724 71.0063 34.2535C71.3482 34.0325 71.7476 33.922 72.2034 33.922C72.4666 33.922 72.7269 33.9653 72.9836 34.052C73.2402 34.1387 73.4737 34.2795 73.684 34.4746C73.8953 34.6675 74.063 34.9232 74.1881 35.2419C74.3132 35.5605 74.3752 35.9527 74.3752 36.4187V36.7438H70.4791V36.0805H73.5858C73.5858 35.7988 73.5284 35.5475 73.4144 35.3264C73.3023 35.1053 73.1429 34.9308 72.9345 34.8029C72.7278 34.6751 72.4842 34.6111 72.2034 34.6111C71.8939 34.6111 71.6271 34.687 71.401 34.8387C71.1768 34.9883 71.0045 35.1833 70.884 35.4239C70.7636 35.6645 70.7033 35.9223 70.7033 36.1976V36.6397C70.7033 37.0169 70.7691 37.3366 70.9007 37.5987C71.0341 37.8588 71.2194 38.0571 71.4566 38.1937C71.6938 38.3281 71.969 38.3953 72.2822 38.3953C72.4869 38.3953 72.6713 38.3671 72.8353 38.3107C73.0021 38.2522 73.1457 38.1655 73.2662 38.0506C73.3866 37.9336 73.4802 37.7884 73.546 37.615L74.2965 37.8231C74.2177 38.0745 74.0843 38.2956 73.8981 38.4863C73.7118 38.6749 73.4811 38.8222 73.2069 38.9284C72.9326 39.0325 72.625 39.0845 72.2822 39.0845ZM75.186 38.9805V33.987H75.9365V34.7412H75.9884C76.081 34.4941 76.2478 34.2936 76.4887 34.1397C76.7305 33.9859 77.002 33.909 77.305 33.909C77.3615 33.909 77.4329 33.9101 77.519 33.9122C77.6043 33.9144 77.6691 33.9177 77.7127 33.922V34.7022C77.6867 34.6957 77.6265 34.6859 77.532 34.6729C77.4393 34.6577 77.3421 34.6501 77.2392 34.6501C76.9937 34.6501 76.7741 34.7011 76.5814 34.8029C76.3905 34.9026 76.2385 35.0414 76.1273 35.2191C76.0171 35.3947 75.9624 35.5951 75.9624 35.8205V38.9805H75.186ZM79.0395 32.3225V38.9805H78.263V32.3225H79.0395ZM80.5905 40.8529C80.459 40.8529 80.3422 40.8421 80.2385 40.8204C80.1356 40.8009 80.0643 40.7814 80.0253 40.7619L80.2227 40.0857C80.4108 40.1334 80.5776 40.1508 80.7221 40.1378C80.8676 40.1248 80.9954 40.0608 81.1076 39.9459C81.2215 39.8332 81.3253 39.6501 81.4198 39.3965L81.5653 39.0065L79.6955 33.987H80.5387L81.9331 37.9661H81.9859L83.3813 33.987H84.2235L82.0786 39.7086C81.9813 39.9665 81.8618 40.18 81.7191 40.3491C81.5773 40.5203 81.4115 40.6471 81.2224 40.7294C81.0362 40.8117 80.8259 40.8529 80.5905 40.8529Z" fill="black"/>
<path d="M89.1964 38.9798H86.9133V32.3218H89.2427C89.9117 32.3218 90.4861 32.4551 90.967 32.7217C91.4497 32.986 91.8203 33.3664 92.0788 33.8628C92.3373 34.3591 92.4671 34.9529 92.4671 35.6443C92.4671 36.3378 92.3364 36.9338 92.0761 37.4323C91.8166 37.9307 91.4432 38.3133 90.954 38.5799C90.4667 38.8465 89.8811 38.9798 89.1964 38.9798ZM88.1336 37.9361H89.1371C89.6068 37.9361 89.9987 37.8516 90.3119 37.6827C90.626 37.5114 90.8614 37.2568 91.0198 36.9186C91.1773 36.5784 91.2561 36.1536 91.2561 35.6443C91.2561 35.1349 91.1773 34.7123 91.0198 34.3764C90.8614 34.0383 90.6279 33.7858 90.3184 33.6189C90.0117 33.4499 89.63 33.3653 89.1732 33.3653H88.1336V37.9361ZM93.2565 38.9798V32.3218H95.7832C96.3011 32.3218 96.7357 32.4172 97.0859 32.6079C97.4399 32.7986 97.7058 33.0608 97.8855 33.3946C98.0681 33.7262 98.1589 34.1034 98.1589 34.5259C98.1589 34.9529 98.0681 35.3322 97.8855 35.6638C97.7039 35.9954 97.4352 36.2565 97.0794 36.4472C96.7246 36.6358 96.2863 36.7301 95.7665 36.7301H94.0922V35.7386H95.6025C95.9055 35.7386 96.1529 35.6866 96.3456 35.5825C96.5393 35.4785 96.6819 35.3354 96.7737 35.1534C96.8682 34.9713 96.9154 34.7622 96.9154 34.5259C96.9154 34.2898 96.8682 34.0817 96.7737 33.9018C96.6819 33.7219 96.5383 33.5821 96.3428 33.4824C96.1501 33.3805 95.9009 33.3296 95.596 33.3296H94.4768V38.9798H93.2565ZM99.9869 36.0539V38.9798H98.7963V32.3218H99.961V34.8348H100.02C100.138 34.553 100.321 34.3309 100.57 34.1684C100.82 34.0037 101.138 33.9213 101.524 33.9213C101.874 33.9213 102.181 33.9939 102.441 34.1391C102.703 34.2843 102.905 34.4967 103.047 34.7762C103.192 35.0558 103.264 35.3972 103.264 35.8003V38.9798H102.074V35.9824C102.074 35.6465 101.986 35.3853 101.809 35.1989C101.636 35.0103 101.393 34.916 101.079 34.916C100.869 34.916 100.68 34.9616 100.513 35.0526C100.349 35.1414 100.22 35.2704 100.125 35.4395C100.033 35.6085 99.9869 35.8134 99.9869 36.0539ZM104.107 38.9798V33.9863H105.299V38.9798H104.107ZM104.707 33.2776C104.518 33.2776 104.356 33.2158 104.219 33.0922C104.083 32.9665 104.016 32.816 104.016 32.6404C104.016 32.4627 104.083 32.3121 104.219 32.1885C104.356 32.0628 104.518 32 104.707 32C104.898 32 105.06 32.0628 105.193 32.1885C105.329 32.3121 105.397 32.4627 105.397 32.6404C105.397 32.816 105.329 32.9665 105.193 33.0922C105.06 33.2158 104.898 33.2776 104.707 33.2776Z" fill="#0FA958"/>
<path d="M18.9494 1C28.3307 1 35.9369 8.61051 35.9369 18C35.9369 27.3895 28.3307 35 18.9494 35C9.56813 35 1.96191 27.3895 1.96191 18C1.96191 8.61051 9.56813 1 18.9494 1Z" stroke="#0FA958" strokeWidth="2"/>
<path d="M32.9398 18C32.9398 10.268 26.6761 4 18.9495 4C11.2229 4 4.95923 10.268 4.95923 18C4.95923 25.732 11.2229 32 18.9495 32C26.6761 32 32.9398 25.732 32.9398 18Z" fill="#0FA958"/>
<path d="M13.5206 19.7053C13.5206 20.0274 13.5775 20.3301 13.6912 20.6135C13.805 20.8841 13.9567 21.1224 14.1463 21.3285C14.3486 21.5346 14.5825 21.6957 14.848 21.8116C15.1261 21.9275 15.4232 21.9855 15.7392 21.9855C16.0426 21.9855 16.3271 21.9275 16.5925 21.8116C16.8707 21.6957 17.1045 21.5346 17.2942 21.3285C17.4964 21.1224 17.6544 20.8841 17.7682 20.6135C17.8946 20.343 17.9579 20.0531 17.9579 19.744C17.9579 19.4348 17.8946 19.1449 17.7682 18.8744C17.6544 18.591 17.4964 18.3462 17.2942 18.1401C17.1045 17.934 16.8707 17.7729 16.5925 17.657C16.3271 17.5411 16.0426 17.4831 15.7392 17.4831C15.4232 17.4831 15.1261 17.5411 14.848 17.657C14.5825 17.7729 14.3486 17.934 14.1463 18.1401C13.9567 18.3462 13.805 18.5845 13.6912 18.8551C13.5775 19.1127 13.5206 19.3961 13.5206 19.7053ZM17.8441 14.7778H21.2953V24.6908H17.8441V23.5894C17.1108 24.5298 16.1185 25 14.8669 25C14.159 25 13.5079 24.8712 12.9138 24.6135C12.3196 24.343 11.8013 23.9694 11.3588 23.4928C10.9163 23.0161 10.5687 22.4557 10.3159 21.8116C10.0757 21.1675 9.95557 20.4654 9.95557 19.7053C9.95557 18.9968 10.0757 18.3269 10.3159 17.6957C10.5561 17.0515 10.8911 16.4911 11.3209 16.0145C11.7507 15.5378 12.2627 15.1643 12.8569 14.8937C13.451 14.6103 14.1084 14.4686 14.829 14.4686C16.0426 14.4686 17.0476 14.9002 17.8441 15.7633V14.7778ZM25.7359 14.7778V24.6908H22.3036V14.7778H25.7359ZM22.0761 10.971C22.0761 10.7005 22.1266 10.4493 22.2278 10.2174C22.3289 9.97262 22.468 9.76006 22.6449 9.57971C22.8219 9.39936 23.0242 9.25765 23.2517 9.15459C23.4919 9.05153 23.7448 9 24.0103 9C24.2757 9 24.5223 9.05153 24.7498 9.15459C24.99 9.25765 25.1986 9.39936 25.3756 9.57971C25.5526 9.76006 25.6916 9.97262 25.7928 10.2174C25.8939 10.4493 25.9445 10.7005 25.9445 10.971C25.9445 11.2415 25.8939 11.4992 25.7928 11.744C25.6916 11.9758 25.5526 12.182 25.3756 12.3623C25.1986 12.5427 24.99 12.6844 24.7498 12.7874C24.5223 12.8905 24.2757 12.942 24.0103 12.942C23.7448 12.942 23.4919 12.8905 23.2517 12.7874C23.0242 12.6844 22.8219 12.5427 22.6449 12.3623C22.468 12.182 22.3289 11.9758 22.2278 11.744C22.1266 11.4992 22.0761 11.2415 22.0761 10.971Z" fill="white"/>
</svg>
